/* XPM */
static char *result[] = {
/* columns rows colors chars-per-pixel */
"38 38 69 1 ",
"  c #4B2F1D",
". c #4C301E",
"X c #4E3422",
"o c #4E3924",
"O c #513624",
"+ c #533C25",
"@ c #593E27",
"# c #553E28",
"$ c #583F28",
"% c #544029",
"& c #5B442B",
"* c #5D482F",
"= c #5B4634",
"- c #5D4933",
"; c #5E4E39",
": c #60472B",
"> c #644A2E",
", c #684E2F",
"< c #664D31",
"1 c #684F30",
"2 c #675032",
"3 c #6B5132",
"4 c #64523C",
"5 c #715535",
"6 c #745937",
"7 c #715539",
"8 c #755A3B",
"9 c #795E3D",
"0 c #7C613E",
"q c #675541",
"w c #6B5B47",
"e c #795F40",
"r c #6F624F",
"t c #7C6341",
"y c #72634F",
"u c #6F6250",
"i c #706350",
"p c #766854",
"a c #80623F",
"s c #826643",
"d c #856946",
"f c #886B47",
"g c #866D4A",
"h c #886E4B",
"j c #8B714E",
"k c #896F50",
"l c #8E7552",
"z c #8F7854",
"x c #907753",
"c c #917853",
"v c #957D59",
"b c #827663",
"n c #857965",
"m c #867A6C",
"M c #887A68",
"N c #97815D",
"B c #99825E",
"V c #9B8661",
"C c #9E8A66",
"Z c #9F8C68",
"A c #8E8476",
"S c #8E8478",
"D c #908677",
"F c #908779",
"G c #A08C67",
"H c #A18F6A",
"J c #9A9285",
"K c #9B9488",
"L c #72A954",
/* pixels */
"LLLLLLLLLLLLLLLLLLLLLLLLLLLLLLLLLLLLLL",
"LLLLLLLLLLLLLLLLLLLLLLLLLLLLLLLLLLLLLL",
"LLuiwq44%%%%*&****2***&&*&%%%oo4qqwpuL",
"LL4KKJJ;BBVVZZHHHHHHHHGGHHHCZCC;JKKKqL",
"LL4bnn#hhjNjjxNlzzcccclccchhhhhh#nnp4L",
"LL4nn&dhhjhjNxjlczcccccllcccjhhgf&nn4L",
"LL;y#z%ghhajjNNlccccccclccclzjjg%c%i<L",
"LL-=ghN%%&:@+o%%%%%%%@@@@+%%%%%%Nhj=-L",
"LL*hhhN%,,,2+,,,31,+>,,,,,+,,,,%CfljoL",
"LL&hhhN%,,22+12,331O11,,,,&,,,,+VljjoL",
"LL&hghc%0000:fsssds:dsssaa*ffs8+ChlhoL",
"LL&ggfN%0aaa&jddddd<hdddfd:ffd0%Cjhh+L",
"LL&gggN%00ag>jddsff>jfffdd>fff0%Vjjl+L",
"LL&gggN%0gga,cddfff1xffffd,fff0%BjhhOL",
"LL*hggN%0gag,cddfdf1cffhfd,fff0%VjhhOL",
"LL&hggN.0aga,lddfhf1chfffd,aff9&BhhjOL",
"LL&gtgv#asss<xddfff<xffffd<ffda$VgggOL",
"LL-dgdv+9sss<xddfsf1xfffdd<fdds$vkgdXL",
"LL*stgvoassa<xdddfd<xddddd<ffd9$vggdXL",
"LL*tgtvo9sas>xddddf2xsdddd<ddf9$zgggXL",
"LL&tssvX9asa,xsstfd<cdddss<ddd9@zgggXL",
"LL&ttsvX9aaa>xsdddd<xsssss<sss9OzgdtXL",
"LL#tttxO8st0>xsstts>jasss0>sss9+ltddXL",
"LL+tttc.8990>jsssst>jae999>00a9+lgtsXL",
"LL+tttcX8809:ja00aa:aaaa99:9a05+ktddXL",
"LL+te8z 6898:j9a0a9:a55596:a995+kdtdXL",
"LL+988z.6686&h89999:fa6a66@668,Ogttt L",
"LL+688zX3686@d89999:a55665@6863.let8XL",
"LLo688zX3566@a99999@a35553@5653.geeeXL",
"LLo688z ,555 a69666.a,,,,,.553,.dee8 L",
"LL 565lX:::& 0,,,,, 5,>>:>.>:>:.f887 L",
"LL-.55p .  .......        .    .g88 XL",
"LL;A 7XtkkggkkkkzzzzzzllllkkkkgkX7XA=L",
"LL=bS l778eeettttttttteeee888877z Sn=L",
"LL=bpJ 77888ttttttttteeee98e8877.Snn=L",
"LL=ruuSX788e8wttttttttee8e88877 mppp=L",
"LL=++OOO   . .X    .....  X   XXOO++#L",
"LLLLLLLLLLLLLLLLLLLLLLLLLLLLLLLLLLLLLL"
};
