/* XPM */
static char *result[] = {
/* columns rows colors chars-per-pixel */
"32 32 48 1 ",
"  c #134D00",
". c #175001",
"X c #1A5103",
"o c #1B540B",
"O c #205811",
"+ c #2D651B",
"@ c #2F6819",
"# c #306714",
"$ c #336C1D",
"% c #346D24",
"& c #367024",
"* c #3A7222",
"= c #377029",
"- c #3B7429",
"; c #5A913D",
": c #538C41",
"> c #588E42",
", c #568F48",
"< c #579043",
"1 c #5B9343",
"2 c #5B954A",
"3 c #609745",
"4 c #629945",
"5 c #629B4C",
"6 c #669F50",
"7 c #67A14D",
"8 c #6CA44E",
"9 c #70A64E",
"0 c #71A94F",
"q c #67A155",
"w c #6DA552",
"e c #6FA953",
"r c #6DA659",
"t c #6EA85B",
"y c #71A754",
"u c #72A954",
"i c #71A759",
"p c #74AB5A",
"a c #78AF5C",
"s c #76B15E",
"d c #79B25E",
"f c #6DA661",
"g c #74AC61",
"h c #78AE62",
"j c #75B060",
"k c #7CB361",
"l c #77B069",
"z c #7AB468",
/* pixels */
"piiyyp99uuu8upuuyyuuuypyyu8yy8p9",
"ripuyu0080usp99uuuuyyuyyp8a9ya8p",
"iiyy98u0p8epu0u0uyyuyuuy9a7ayypy",
"yyyy00pueepw8uu0uuyuuuyup8a8p9yy",
"e000uee7qetpy9u00uuyuyyup99u9p9p",
"e0s00eesjgrea99uuuuyuuuy8p;p8ppu",
"0007ss5tqgrqpp9yuyuuyyuup;y;py9u",
"ees7pq&&=qlrwpyuyuuyuuyuuu198puy",
"8deeepqo%%ff%*8uyuuyuuwuuuyuuuyu",
"uu8swqzto%f=+6hiuieuyuuuuuuyyuuy",
"pw8pprq<,o+Ogii9uyuyuuuyyyuuyuuy",
"wppeet5;,,o:rwiiuuuyuyypuuyuuuyu",
"iip9yy8sf21>hp6awuuyyuywyuuyiyuu",
"p8yyuu007pp8wppyuuuuuuuuuuyuuuuy",
"8pp90000uueswp9uuyyuuywpyuwuuuyu",
"uuyy0000u0uupyuuyuuyuyueyupyuuwu",
"upyuu08uu0uwuuyyup70dwrttetseu0e",
"p9uyuuu9uuuuyyuy8edwqperetet7euu",
"8u84p99puuyuuyyp8p7*tettts@epeeu",
"uu48;pyyueuyuuuuuere&rtrr%-qpppe",
"ypu;p8upyyuuyuyypp8a p&g%+ttwtpw",
"uu8p8au8uuuyuuuu8pp; $ >o2rpepwp",
"8p9ypu7puyyuuyuupp8y5112<;pwypiy",
"pyyyuyupypwuyuuuu8piqiewtewpyuwp",
"09p9py8piuiuyyu0u0uueeeeeeeeu0uu",
"0u9pypwpppyyyyuuuuuueeeeeeeeuu0u",
"uu7uiypw$4kp99uu0000uueeeeu00u0u",
"08duy#w*upy6py9u00u0000eee0u0000",
"0a96i3XX>ppwyu09u0uuu0ueuyuuuu0u",
"uuyypwiiiiyip99auuu0uue0u9uuuuuu",
"0uyppipwipuiuua9uuuuyuuyyuyuyuuu",
"u9uii6ppiiypuuu9iyyuuuyuuyuuyuuu"
};
