/* XPM */
static char *result[] = {
/* columns rows colors chars-per-pixel */
"32 33 11 1 ",
"  c #417579",
". c #A0654D",
"X c #B56E4B",
"o c #56B742",
"O c #498F7B",
"+ c #49A867",
"@ c #4FAF7B",
"# c #74C857",
"$ c #D38658",
"% c #BDEF6F",
"& c #72A954",
/* pixels */
"&&&&&&&&&&&&&&oooo&&&&&&&&&&&&&&",
"&&&&&&&&&&&&oo#%%#oo&&&&&&&&&&&&",
"&&&&&&&&&&&o##%%%%##o&&&&&&&&&&&",
"&&&&&&&&&&o##%%%%%%##o&&&&&&&&&&",
"&&&&&&&&&oo##%%%%%%##oo&&&&&&&&&",
"&&&&&&&&&o####%%%%####o&&&&&&&&&",
"&&&&&&&&+o#####%%#####o+&&&&&&&&",
"&&&&&&&&oo###########ooo&&&&&&&&",
"&&&&&&&+ooo#########oooo+&&&&&&&",
"&&&&&&&++oo#########ooo++&&&&&&&",
"&&&&&&O+ooooo#####oooooo+O&&&&&&",
"&&&&&&O+oooooo###oooooo++O&&&&&&",
"&&&&&&O++oooooooooooooo++O&&&&&&",
"&&&&&O+++ooooooooooooo++++O&&&&&",
"&&&&&O+++ooooooooooooo++++O&&&&&",
"&&&&&OO+++oo+ooooo+oo++++OO&&&&&",
"&&&&&O+++++++ooooo++++++++O&&&&&",
"&&&&&OO+++++++ooo++++++++OO&&&&&",
"&&&&& O++++++++++++++++++O &&&&&",
"&&&&& OOO+++++++++++++O+OO &&&&&",
"&&&&& OOO+++O+++++O+++OOOO &&&&&",
"&&&&&& OOO++O+++++O++OOOO &&&&&&",
"&&&&&& O OOOOO+++OOOOOO O &&&&&&",
"&&&&&&&  OOOOOOOOOOOOOO  &&&&&&&",
"&&&&&&&&  OO OOOOOO OO  &&&&&&&&",
"&&&&&&&&@@   OOOOOO   @@&&&&&&&&",
"&&&&&&&&@@.XX      XX.@@&&&&&&&&",
"&&&&&&&&&@@..XXXXXX..@@&&&&&&&&&",
"&&&&&&&&&@@@@.$$$$.@@@@&&&&&&&&&",
"&&&&&&&&&&@@@@....@@@@&&&&&&&&&&",
"&&&&&&&&&&&@@@@@@@@@@&&&&&&&&&&&",
"&&&&&&&&&&&&&@@@@@@&&&&&&&&&&&&&",
"&&&&&&&&&&&&&&&&&&&&&&&&&&&&&&&&"
};
