/* XPM */
static char *result[] = {
/* columns rows colors chars-per-pixel */
"32 32 128 2 ",
"   c #160C0E",
".  c #12160F",
"X  c #171B0F",
"o  c #1A1F12",
"O  c #1B2013",
"+  c #192B18",
"@  c #192C18",
"#  c #1A2C18",
"$  c #1A2C19",
"%  c #313C19",
"&  c #2B431E",
"*  c #2B441E",
"=  c #2C441E",
"-  c #2C441F",
";  c #2C451F",
":  c #2D451F",
">  c #334C22",
",  c #334D22",
"<  c #334C23",
"1  c #334D23",
"2  c #344D23",
"3  c #344E23",
"4  c #354E23",
"5  c #354E24",
"6  c #2E5A2B",
"7  c #2F5A2C",
"8  c #2F5B2C",
"9  c #375728",
"0  c #375729",
"q  c #385729",
"w  c #30592B",
"e  c #305A2B",
"r  c #315A2B",
"t  c #375829",
"y  c #315A2C",
"u  c #385829",
"i  c #38582A",
"p  c #3D5B2A",
"a  c #3D5B2B",
"s  c #3E5B2A",
"d  c #3E5B2B",
"f  c #3D5C2B",
"g  c #3E5C2A",
"h  c #3E5C2B",
"j  c #3F5C2B",
"k  c #34602E",
"l  c #35602E",
"z  c #35612E",
"x  c #35602F",
"c  c #35612F",
"v  c #36602F",
"b  c #36612F",
"n  c #3D612E",
"m  c #3D622E",
"M  c #3E622E",
"N  c #3E622F",
"B  c #3E632F",
"V  c #3F632F",
"C  c #4E6618",
"Z  c #4C611F",
"A  c #4D622C",
"S  c #526626",
"D  c #53662E",
"F  c #587024",
"G  c #406431",
"H  c #416431",
"J  c #406432",
"K  c #416432",
"L  c #416532",
"P  c #426432",
"I  c #426532",
"U  c #436532",
"Y  c #426533",
"T  c #436633",
"R  c #446F34",
"E  c #456F34",
"W  c #446F35",
"Q  c #456F35",
"!  c #457034",
"~  c #447035",
"^  c #457035",
"/  c #467135",
"(  c #467939",
")  c #477939",
"_  c #477A39",
"`  c #477A3A",
"'  c #487A39",
"]  c #487A3A",
"[  c #49783F",
"{  c #4B793F",
"}  c #587032",
"|  c #587132",
" . c #60792A",
".. c #617A35",
"X. c #4A7940",
"o. c #4B7940",
"O. c #4B7A40",
"+. c #4B7A41",
"@. c #4D7C42",
"#. c #4E7C42",
"$. c #4E7D42",
"%. c #4F7D42",
"&. c #4E7D43",
"*. c #4F7D43",
"=. c #4F7E43",
"-. c #507E43",
";. c #508941",
":. c #518941",
">. c #518A41",
",. c #528A41",
"<. c #518A42",
"1. c #518B42",
"2. c #528A42",
"3. c #528B42",
"4. c #538B42",
"5. c #528B43",
"6. c #538B43",
"7. c #6AA051",
"8. c #6BA051",
"9. c #6BA052",
"0. c #6BA152",
"q. c #77AD5C",
"w. c #77AD5D",
"e. c #77AE5D",
"r. c #78AE5D",
"t. c #A2D077",
"y. c #A3D178",
"u. c #72A954",
/* pixels */
"u.u.u.u.u.u.u.u.u.u.u.u.u.u.u.u.u.u.u.u.u.u.u.u.u.u.u.u.u.u.u.u.",
"F F C C C C C C C C C F F S F  . .S S  . . . . . .F F S S F F F ",
"S S  .F F F F Z Z Z Z Z Z h F F  . .F F S S S C C C C  . .F S S ",
"F  .Z Z  . . . . . . . .F d y.Z F F S C C Z Z  .F F F  .C  .F F ",
" . . . .Z h Z F  .F F F s e.e.h  .S F F F p F Z S F F Z F F F h ",
" .Z Z Z y.h  . .F F  .h e.7.7.r.h  .F  .F h t.F C  .C F Z F t.h ",
" . . .F e.r.h F F F h M 0 :.<.0 F F Z Z h r.r.d F F F C  .p e.w.",
"F F h e.7.7.e.s F F S h q.k x e.d S F s q.7.7.e.d  . . .d e.7.9.",
" .h M 0 2.2.0 F F  .S h _ <.3.) ` h p n 0 6.2.q S S S S S 0 ;.2.",
"Z Z h e.l k e.d F F y.p l N M c k h } h e.x c e.s F F F h r.x k ",
"S S 2 ( 3.2._ ( d s e.e.s M z m =.-.2 2 <.2.) _ p  . .a ] ` ;.1.",
" .3 c l N B b N h e.9.7.e.s +.6.t y r 2 2 B b x p F F d l c B M ",
"3 %.[ N B c M -.q u <.2.u s w 0 0 K K * n k B *.h 4 C &.=.M k B ",
"e r u >.o.[ 2.B d e.z k r.f H K h 8 8 - +.+.2.0 h y.C w 9 3.O.X.",
"3 ~ u u w r 0 h ( ( <.<._ 4 8 d t.I 8 - # + 0 h r.e. .6.0 0 e w ",
"0 7 W K R K G h c c B M x v d e.e.h & # $ K h q.7.7.r.s H I H R ",
"L q t 6 d 4 , #.%.V b B M h r.7.8.e.h ; i 8 d 0 3.5.u I q q 8 0 ",
"* W I I y.p y w i 4.{ +.2.d t 2.3.u 0 u u 6 d q.c k e.d 7 6 7 0 ",
"# * J h e.e.G J 0 0 y r 0 p e.k b e.p q H I 3 ` 2.5.) ( p Q T I ",
"o : h r.7.9.e.h ^ L I E K 3 ` 5.5.( ( p * 2 c l B M b k s * * - ",
"% X - t 2.1.0 d q 0 7 0 > b k B B x l d 2 %.a M V k m %.$.2 2 $ ",
"D ..a r.b x e.h I 8 8 < $.o.B B l M &.2 w e h t.+.X.2.u e w 2 - ",
"| p _ ( 6.5.( > H ! 2 w w u 3.O.o.3.0 e 2 s r.r.h r 0 q J K * . ",
"A d b x B B c x 2 & - 2 h 0 9 e w 0 t * j q.9.7.e.h J E 8 6 - = ",
"1 %.*.B c V M O.%.2 * s t.J ^ ^ I K + h B u <.5.0 7 0 u u K * d ",
"w r 0 ,.X.+.2.0 e # h e.r.s 8 I I + $ * h r.z l e.h 8 K ^ * + d ",
"K Y i 0 y y u i $ h r.7.7.e.s 8 8 7 J 2 h 2.6.' ( h ^ I * 2 > %.",
"7 8 ^ J I s I ~ 8 g 0 3.2.0 P I I ! 2 l h t.M l x s * = 1 2 w e ",
"I 9 0 0 7 d t.t u d r.b c e.h I - 2 $.d e.e.p N @.$.2 4 O - J L ",
"* W L 6 h r.e.d / 2 ( 2.<.) ( d 2 y p r.9.7.e.h u y r 4 2 * 7 8 ",
"$ & P h e.0.9.q.p c c B B c c h   d M 0 5.1.u t u K L $ $ * U 0 ",
"o @ h B i 3.2.q *.+.M N l m $.$.5 1 p r.b c e.s R 7 8 * + $ - ^ "
};
